<svg id="icon" height="512" viewBox="0 0 128 128" width="512" xmlns="http://www.w3.org/2000/svg"><path d="m23.392 44.407v53.879a4.713 4.713 0 0 0 4.714 4.714h71.788a4.713 4.713 0 0 0 4.714-4.714v-53.879z" fill="#eeefee"/><path d="m23.392 31.784v12.623h81.216v-12.623a4.714 4.714 0 0 0 -4.714-4.714h-71.788a4.714 4.714 0 0 0 -4.714 4.714z" fill="#ef5261"/><g fill="#dbd8dd"><rect height="11.085" rx="1.637" width="11.353" x="48.507" y="50.177"/><rect height="11.085" rx="1.637" width="11.353" x="68.14" y="50.177"/><rect height="11.085" rx="1.637" width="11.353" x="87.772" y="50.177"/><rect height="11.085" rx="1.637" width="11.353" x="28.875" y="67.666"/><rect height="11.085" rx="1.637" width="11.353" x="48.507" y="67.666"/><rect height="11.085" rx="1.637" width="11.353" x="68.14" y="67.666"/><rect height="11.085" rx="1.637" width="11.353" x="87.772" y="67.666"/><rect height="11.085" rx="1.637" width="11.353" x="28.875" y="85.155"/><rect height="11.085" rx="1.637" width="11.353" x="48.507" y="85.155"/><rect height="11.085" rx="1.637" width="11.353" x="68.14" y="85.155"/></g><circle cx="40.379" cy="34.748" fill="#eeefee" r="4.308"/><circle cx="87.621" cy="34.748" fill="#eeefee" r="4.308"/><path d="m40.379 21a2.476 2.476 0 0 0 -2.479 2.476v10.424a2.476 2.476 0 0 0 4.952 0v-10.424a2.477 2.477 0 0 0 -2.473-2.476z" fill="#575b6d"/><path d="m87.621 21a2.476 2.476 0 0 0 -2.476 2.476v10.424a2.476 2.476 0 0 0 4.952 0v-10.424a2.476 2.476 0 0 0 -2.476-2.476z" fill="#575b6d"/></svg>