<svg id="icon" height="512" viewBox="0 0 128 128" width="512" xmlns="http://www.w3.org/2000/svg"><path d="m105 63.993a41 41 0 1 1 -40.993-40.993 41 41 0 0 1 40.993 40.993z" fill="#69b0ee"/><path d="m64.007 98.236a34.236 34.236 0 1 1 34.229-34.243 34.282 34.282 0 0 1 -34.229 34.243z" fill="#eeefee"/><rect fill="#575b6d" height="27.026" rx="1.286" width="2.573" x="62.714" y="37.553"/><rect fill="#575b6d" height="23.291" rx="1.286" transform="matrix(0 1 -1 0 135.288 -7.288)" width="2.573" x="70.002" y="52.355"/><path d="m64.007 68.357a4.357 4.357 0 1 1 4.35-4.364 4.423 4.423 0 0 1 -4.35 4.364z" fill="#69b0ee"/></svg>