<svg id="Layer_1" enable-background="new 0 0 510 510" height="512" viewBox="0 0 510 510" width="512" xmlns="http://www.w3.org/2000/svg"><g id="XMLID_2477_"><path id="XMLID_2540_" d="m60 0v465h60c6.254-8.887 106.246-150.981 112.5-159.868l7.5-152.566-7.5-152.566c-4.865 0-167.635 0-172.5 0z" fill="#f4d844"/><path id="XMLID_2520_" d="m405 0c-4.865 0-167.635 0-172.5 0v305.132c9.583-13.618 162.917-231.514 172.5-245.132 0-7.259 0-52.693 0-60z" fill="#ecbd2c"/><path id="XMLID_2597_" d="m120 60v450h165l15-225-15-225c-4.654 0-160.348 0-165 0z" fill="#f9f9f9"/><path id="XMLID_2595_" d="m285 60v450h66.041l21.626-80.667 77.333-18.12s0-331.711 0-351.213c-4.654 0-160.348 0-165 0z" fill="#e2dff4"/><path id="XMLID_2506_" d="m351.041 510c12.034-12.013 86.899-86.749 98.959-98.787-26.815 0-83.16 0-98.959 0z" fill="#bebcdd"/><g id="XMLID_2509_"><g><path id="XMLID_730_" d="m285 150c-28.278 0-88.527 0-105 0 0-10.492 0-19.508 0-30h105l15 15z" fill="#4e6ba6"/></g></g><g id="XMLID_2508_"><g><path id="XMLID_185_" d="m285 210c-28.278 0-88.527 0-105 0 0-10.492 0-19.508 0-30h105l15 15z" fill="#a7cafc"/></g></g><g id="XMLID_2507_"><g><path id="XMLID_182_" d="m285 270c-28.278 0-88.527 0-105 0 0-10.492 0-19.508 0-30h105l15 15z" fill="#a7cafc"/></g></g><g id="XMLID_2495_"><g><path id="XMLID_180_" d="m285 330c-28.278 0-88.527 0-105 0 0-10.492 0-19.508 0-30h105l15 15z" fill="#a7cafc"/></g></g><g id="XMLID_2609_"><g><path id="XMLID_764_" d="m390 150c-28.278 0-88.527 0-105 0 0-10.492 0-19.508 0-30h105z" fill="#28487a"/></g></g><g id="XMLID_2604_"><g><path id="XMLID_369_" d="m390 210c-28.278 0-88.527 0-105 0 0-10.492 0-19.508 0-30h105z" fill="#8493fb"/></g></g><g id="XMLID_2535_"><g><path id="XMLID_366_" d="m390 270c-28.278 0-88.527 0-105 0 0-10.492 0-19.508 0-30h105z" fill="#8493fb"/></g></g><g id="XMLID_2318_"><g><path id="XMLID_365_" d="m390 330c-28.278 0-88.527 0-105 0 0-10.492 0-19.508 0-30h105z" fill="#8493fb"/></g></g><g id="XMLID_2346_"><g><path id="XMLID_692_" d="m285 390c-28.278 0-88.527 0-105 0 0-10.492 0-19.508 0-30h105z" fill="#dd4e4e"/></g></g></g></svg>